<svg width="343" height="61.112" xmlns="http://www.w3.org/2000/svg">

 <g>
  <title>background</title>
  <rect fill="none" id="canvas_background" height="63.112" width="345" y="-1" x="-1"/>
 </g>
 <g>
  <title>Layer 1</title>
  <g id="svg_1">
   <path id="svg_2" d="m176.469,19.764l-16.443,0l-9.623,9.602l13.208,0c-1.721,3.86 -5.602,6.553 -10.103,6.553c-6.103,0 -11.058,-4.953 -11.058,-11.056c0,-6.111 4.955,-11.073 11.058,-11.073c2.215,0 4.279,0.647 6.004,1.769l8.91,-8.901c-4.071,-3.339 -9.271,-5.346 -14.947,-5.346c-12.998,0 -23.534,10.54 -23.534,23.551c0,12.996 10.537,23.533 23.534,23.533c13.013,0 23.555,-10.537 23.555,-23.533c-0.001,-1.755 -0.198,-3.466 -0.561,-5.099" fill="#FFFFFF"/>
   <rect id="svg_3" height="7.104" width="11.634" fill="#FFFFFF" y="2.125" x="180.183"/>
   <polygon id="svg_4" points="218.03298950195312,47.683998107910156 207.98699951171875,47.683998107910156 207.8909912109375,47.439002990722656 194.11700439453125,12.194000244140625 206.53298950195312,12.194000244140625 213.08099365234375,31.77899932861328 219.6820068359375,12.194000244140625 231.90701293945312,12.194000244140625 " fill="#FFFFFF"/>
   <rect id="svg_5" height="35.225" width="11.649" fill="#FFFFFF" y="12.211" x="234.043"/>
   <rect id="svg_6" height="7.104" width="11.649" fill="#FFFFFF" y="2.125" x="234.043"/>
   <path id="svg_7" d="m281.822,47.437l-11.626,0l0,-19.536c0,-3.668 -1.519,-5.538 -4.513,-5.538c-3.876,0 -4.677,3.019 -4.677,5.538l0,19.535l-11.647,0l0,-35.225l8.065,0l3.197,3.175c2.522,-2.559 5.448,-3.797 8.876,-3.797c7.603,0 12.323,5.121 12.323,13.375l0,22.473l0.002,0z" fill="#FFFFFF"/>
   <path id="svg_8" d="m17.059,48.045c-6.076,0 -11.121,-2.297 -14.951,-6.857l-0.646,-0.765l7.887,-7.883l0.453,0.493c2.496,2.744 4.589,3.922 7.013,3.922c3.145,0 4.625,-1.897 4.625,-5.974l0,-28.856l12.017,0l0,29.292c0,10.562 -5.979,16.628 -16.398,16.628" fill="#FFFFFF"/>
   <path id="svg_9" d="m313.458,12.211l-2.959,2.979c-2.798,-2.466 -5.94,-3.602 -9.839,-3.602c-7.897,0 -15.896,5.712 -15.896,16.627l0,0.132c0,10.924 7.999,16.637 15.896,16.637c3.744,0 6.68,-1.05 9.384,-3.377c-0.501,4.161 -3.013,6.929 -8.035,6.929c-3.026,0 -5.636,-0.545 -8.349,-1.76l-7.611,7.615l1.053,0.549c4.428,2.345 9.667,3.595 15.153,3.595c13.411,0 19.651,-6.823 19.651,-19.56l0,-26.764l-8.448,0zm-2.605,16.141c0,4.066 -3.152,7.011 -7.497,7.011c-4.37,0 -7.415,-2.877 -7.415,-7.011l0,-0.136c0,-4.064 3.12,-7.005 7.415,-7.005c4.344,0 7.497,2.941 7.497,7.005l0,0.136z" fill="#FFFFFF"/>
   <path id="svg_10" d="m49.682,48.045c-7.604,0 -12.321,-5.12 -12.321,-13.379l0,-22.455l11.631,0l0,19.506c0,3.683 1.516,5.545 4.49,5.545c3.887,0 4.691,-3.021 4.691,-5.545l0,-19.506l11.663,0l0,35.225l-8.081,0l-3.193,-3.187c-2.523,2.557 -5.435,3.796 -8.88,3.796" fill="#FFFFFF"/>
   <path id="svg_11" d="m117.973,47.989c-7.218,0 -10.735,-3.608 -10.735,-11.054l0,-14.441l-3.929,0l0,-10.286l3.929,0l0,-10.084l11.639,0l0,10.084l7.734,0l0,10.287l-7.734,0l0,12.911c0,1.564 0.429,2.037 1.864,2.037c1.438,0 2.814,-0.339 4.048,-1.03l1.708,-0.922l0,10.098l-0.561,0.329c-2.376,1.416 -4.893,2.071 -7.963,2.071" fill="#FFFFFF"/>
   <path id="svg_12" d="m90.808,25.752l-1.081,-0.357c-2.715,-0.92 -5.291,-1.787 -5.291,-2.936l0,-0.127c0,-1.144 1.425,-1.553 2.76,-1.553c1.864,0 4.383,0.782 7.088,2.149l6.713,-6.711l-0.533,-0.354c-3.778,-2.542 -8.667,-4.058 -13.079,-4.058c-7.893,0 -13.19,4.638 -13.19,11.538l0,0.132c0,6.87 5.405,9.384 10.679,10.926c0.438,0.139 0.872,0.264 1.291,0.394c2.774,0.817 5.171,1.524 5.171,2.776l0,0.131c0,1.427 -1.771,1.737 -3.262,1.737c-2.835,0 -6.18,-1.199 -9.355,-3.308l-6.404,6.417l-0.091,0.13l0.566,0.438c4.329,3.42 9.672,5.302 15.038,5.302c8.604,0 13.749,-4.373 13.749,-11.729l0,-0.132c0,-7.21 -7.015,-9.541 -10.769,-10.805" fill="#FFFFFF"/>
   <polygon id="svg_13" points="324.3179931640625,13.805999755859375 325.98699951171875,13.805999755859375 325.98699951171875,17.822998046875 327.8580017089844,17.822998046875 327.8580017089844,13.805999755859375 329.5069885253906,13.805999755859375 329.5069885253906,12.21099853515625 324.3179931640625,12.21099853515625 " fill="#FFFFFF"/>
   <polygon id="svg_14" points="334.4939880371094,12.21099853515625 333.2799987792969,14.174003601074219 332.06500244140625,12.21099853515625 330.1199951171875,12.21099853515625 330.1199951171875,17.822998046875 331.96099853515625,17.822998046875 331.96099853515625,15.027000427246094 332.8059997558594,16.334999084472656 333.7179870605469,16.334999084472656 334.57501220703125,15.027000427246094 334.57501220703125,17.822998046875 336.4620056152344,17.822998046875 336.4620056152344,12.21099853515625 " fill="#FFFFFF"/>
   <rect id="svg_15" height="35.225" width="11.634" fill="#FFFFFF" y="12.211" x="180.183"/>
  </g>
 </g>
</svg>
