<svg width="262.279" height="29.89" xmlns="http://www.w3.org/2000/svg">

 <g>
  <title>background</title>
  <rect fill="none" id="canvas_background" height="31.89" width="264.279" y="-1" x="-1"/>
 </g>
 <g>
  <title>Layer 1</title>
  <path id="svg_1" d="m258.155,14.528c0,-7.964 -6.082,-14.42 -13.584,-14.42l-94.772,0l-41.349,0l-94.773,0c-7.503,0 -13.584,6.456 -13.584,14.42c0,7.965 6.081,14.42 13.584,14.42l94.772,0l41.349,0l94.771,0c7.504,0 13.586,-6.455 13.586,-14.42"/>
  <path id="svg_2" d="m237.19,22.744l9.433,0c0.912,0 1.655,-0.721 1.655,-1.633c0,-0.912 -0.743,-1.655 -1.655,-1.655l-7.607,0l0,-3.528l6.408,0c0.912,0 1.656,-0.72 1.656,-1.632s-0.744,-1.656 -1.656,-1.656l-6.408,0l0,-3.408l7.488,0c0.912,0 1.656,-0.72 1.656,-1.632s-0.744,-1.656 -1.656,-1.656l-9.312,0c-1.031,0 -1.848,0.816 -1.848,1.849l0,13.104c-0.002,1.03 0.816,1.847 1.846,1.847m-12.545,0.287c2.521,0 4.513,-0.84 5.881,-1.68c0.888,-0.528 1.295,-1.271 1.295,-2.352l0,-4.08c0,-1.032 -0.815,-1.849 -1.848,-1.849l-4.226,0c-0.887,0 -1.606,0.721 -1.606,1.608c0,0.887 0.721,1.584 1.606,1.584l2.496,0l0,2.4c-0.936,0.672 -2.135,1.008 -3.479,1.008c-2.977,0 -5.088,-2.256 -5.088,-5.328l0,-0.048c0,-2.856 2.136,-5.232 4.822,-5.232c1.584,0 2.664,0.433 3.674,1.152c0.264,0.191 0.6,0.384 1.127,0.384c1.009,0 1.824,-0.815 1.824,-1.824c0,-0.72 -0.408,-1.224 -0.769,-1.487c-1.512,-1.057 -3.192,-1.633 -5.735,-1.633c-5.088,0 -8.809,3.912 -8.809,8.688l0,0.048c0.003,4.969 3.604,8.641 8.835,8.641m-26.875,-1.968c0,1.008 0.815,1.824 1.824,1.824c1.008,0 1.823,-0.816 1.823,-1.824l0,-9l7.393,9.696c0.504,0.647 1.031,1.08 1.92,1.08l0.12,0c1.032,0 1.849,-0.816 1.849,-1.849l0,-13.366c0,-1.009 -0.816,-1.824 -1.824,-1.824s-1.824,0.815 -1.824,1.824l0,8.664l-7.127,-9.36c-0.504,-0.647 -1.032,-1.08 -1.92,-1.08l-0.385,0c-1.031,0 -1.849,0.816 -1.849,1.848l0,13.367zm-14.134,1.681l9.433,0c0.911,0 1.655,-0.721 1.655,-1.633c0,-0.912 -0.744,-1.655 -1.655,-1.655l-7.608,0l0,-3.528l6.408,0c0.911,0 1.655,-0.72 1.655,-1.632s-0.744,-1.656 -1.655,-1.656l-6.408,0l0,-3.408l7.488,0c0.911,0 1.655,-0.72 1.655,-1.632s-0.744,-1.656 -1.655,-1.656l-9.312,0c-1.032,0 -1.85,0.816 -1.85,1.849l0,13.104c0.002,1.03 0.817,1.847 1.849,1.847m-16.3,-1.849c0,1.032 0.816,1.849 1.849,1.849l8.688,0c0.937,0 1.681,-0.744 1.681,-1.681c0,-0.936 -0.744,-1.68 -1.681,-1.68l-6.84,0l0,-11.736c0,-1.032 -0.816,-1.848 -1.849,-1.848c-1.031,0 -1.849,0.815 -1.849,1.848l0,13.248l0.001,0zm-14.453,0c0,1.032 0.816,1.849 1.849,1.849l8.688,0c0.937,0 1.681,-0.744 1.681,-1.681c0,-0.936 -0.744,-1.68 -1.681,-1.68l-6.84,0l0,-11.736c0,-1.032 -0.815,-1.848 -1.849,-1.848c-1.03,0 -1.849,0.815 -1.849,1.848l0,13.248l0.001,0zm-13.057,-5.184l2.327,-5.544l2.328,5.544l-4.655,0zm-5.951,5.449c0,0.96 0.744,1.728 1.703,1.728c0.769,0 1.393,-0.432 1.705,-1.152l1.176,-2.76l7.392,0l1.128,2.64c0.336,0.769 0.912,1.272 1.775,1.272c0.983,0 1.752,-0.792 1.752,-1.776c0,-0.239 -0.071,-0.479 -0.191,-0.743l-5.855,-13.225c-0.408,-0.912 -1.129,-1.464 -2.137,-1.464l-0.216,0c-1.008,0 -1.752,0.552 -2.159,1.464l-5.855,13.225c-0.124,0.262 -0.218,0.526 -0.218,0.791m-16.564,-0.12c0,1.031 0.816,1.848 1.848,1.848c1.032,0 1.848,-0.816 1.848,-1.848l0,-5.04l6.816,0l0,5.04c0,1.031 0.816,1.848 1.848,1.848s1.848,-0.816 1.848,-1.848l0,-13.393c0,-1.032 -0.816,-1.848 -1.848,-1.848s-1.848,0.815 -1.848,1.848l0,4.944l-6.816,0l0,-4.944c0,-1.032 -0.816,-1.848 -1.848,-1.848c-1.032,0 -1.848,0.815 -1.848,1.848l0,13.393zm-9.641,1.991c2.688,0 4.464,-0.792 5.976,-2.111c0.336,-0.288 0.624,-0.744 0.624,-1.32c0,-0.936 -0.792,-1.704 -1.728,-1.704c-0.432,0 -0.816,0.168 -1.104,0.408c-1.056,0.84 -2.088,1.32 -3.648,1.32c-2.88,0 -4.872,-2.4 -4.872,-5.28l0,-0.048c0,-2.88 2.04,-5.232 4.872,-5.232c1.32,0 2.4,0.433 3.432,1.2c0.264,0.168 0.6,0.36 1.104,0.36c1.008,0 1.824,-0.792 1.824,-1.801c0,-0.647 -0.336,-1.176 -0.72,-1.464c-1.392,-1.031 -3.096,-1.704 -5.616,-1.704c-5.16,0 -8.76,3.912 -8.76,8.688l0,0.048c0,4.824 3.672,8.64 8.616,8.64m-23.975,-0.048c3.624,0 6.168,-1.872 6.168,-5.208l0,-0.048c0,-2.928 -1.92,-4.151 -5.328,-5.04c-2.904,-0.744 -3.624,-1.104 -3.624,-2.208l0,-0.048c0,-0.816 0.744,-1.464 2.16,-1.464c1.152,0 2.304,0.408 3.528,1.128c0.288,0.168 0.576,0.264 0.936,0.264c0.96,0 1.728,-0.744 1.728,-1.704c0,-0.72 -0.408,-1.224 -0.816,-1.464c-1.512,-0.96 -3.288,-1.487 -5.328,-1.487c-3.432,0 -5.88,2.016 -5.88,5.063l0,0.048c0,3.336 2.184,4.272 5.568,5.137c2.808,0.72 3.384,1.199 3.384,2.136l0,0.048c0,0.984 -0.912,1.584 -2.424,1.584c-1.632,0 -3.024,-0.576 -4.296,-1.512c-0.24,-0.168 -0.576,-0.336 -1.056,-0.336c-0.96,0 -1.728,0.743 -1.728,1.704c0,0.575 0.288,1.104 0.696,1.392c1.872,1.343 4.104,2.015 6.312,2.015m-14.309,-10.128c0,0.433 0.264,0.816 0.912,0.816c0.888,0 1.968,-0.433 2.688,-1.152c0.888,-0.888 1.416,-2.184 1.416,-3.936l0,-0.097c0,-1.655 -0.792,-2.688 -2.136,-2.688c-1.2,0 -1.992,0.84 -1.992,1.968l0,0.048c0,1.032 0.84,1.752 1.68,1.969c0.048,1.151 -0.624,1.991 -1.848,2.279c-0.408,0.098 -0.72,0.361 -0.72,0.793m-14.549,8.185c0,1.031 0.816,1.848 1.848,1.848c1.032,0 1.848,-0.816 1.848,-1.848l0,-4.801l6.48,0c0.936,0 1.68,-0.743 1.68,-1.68c0,-0.936 -0.744,-1.68 -1.68,-1.68l-6.48,0l0,-3.576l7.56,0c0.936,0 1.68,-0.744 1.68,-1.68c0,-0.937 -0.744,-1.681 -1.68,-1.681l-9.408,0c-1.032,0 -1.848,0.816 -1.848,1.849l0,13.249zm-7.756,0c0,1.031 0.816,1.848 1.848,1.848c1.032,0 1.848,-0.816 1.848,-1.848l0,-13.393c0,-1.032 -0.816,-1.848 -1.848,-1.848c-1.032,0 -1.848,0.815 -1.848,1.848l0,13.393zm-18.307,0c0,1.031 0.816,1.848 1.848,1.848c1.032,0 1.848,-0.816 1.848,-1.848l0,-5.04l6.816,0l0,5.04c0,1.031 0.816,1.848 1.848,1.848c1.032,0 1.848,-0.816 1.848,-1.848l0,-13.393c0,-1.032 -0.816,-1.848 -1.848,-1.848c-1.032,0 -1.848,0.815 -1.848,1.848l0,4.944l-6.816,0l0,-4.944c0,-1.032 -0.816,-1.848 -1.848,-1.848c-1.032,0 -1.848,0.815 -1.848,1.848l0,13.393zm-9.641,1.991c2.688,0 4.464,-0.792 5.976,-2.111c0.336,-0.288 0.624,-0.744 0.624,-1.32c0,-0.936 -0.792,-1.704 -1.728,-1.704c-0.432,0 -0.816,0.168 -1.104,0.408c-1.056,0.84 -2.088,1.32 -3.648,1.32c-2.88,0 -4.872,-2.4 -4.872,-5.28l0,-0.048c0,-2.88 2.04,-5.232 4.872,-5.232c1.32,0 2.4,0.433 3.432,1.2c0.264,0.168 0.6,0.36 1.104,0.36c1.008,0 1.824,-0.792 1.824,-1.801c0,-0.647 -0.336,-1.176 -0.72,-1.464c-1.392,-1.031 -3.096,-1.704 -5.616,-1.704c-5.16,0 -8.76,3.912 -8.76,8.688l0,0.048c0,4.824 3.672,8.64 8.616,8.64" fill="#FFFFFF"/>
 </g>
</svg>
