<?xml version="1.0" encoding="utf-8"?>
<!-- Generator: Adobe Illustrator 15.0.2, SVG Export Plug-In . SVG Version: 6.00 Build 0)  -->
<!DOCTYPE svg PUBLIC "-//W3C//DTD SVG 1.1//EN" "http://www.w3.org/Graphics/SVG/1.1/DTD/svg11.dtd">
<svg version="1.1" id="Layer_1" xmlns="http://www.w3.org/2000/svg" xmlns:xlink="http://www.w3.org/1999/xlink" x="0px" y="0px"
	 width="595.28px" height="841.89px" viewBox="0 0 595.28 841.89" enable-background="new 0 0 595.28 841.89" xml:space="preserve">
<circle fill="#FF0000" cx="297.138" cy="421.264" r="32.694"/>
<g>
	<path fill="#FFFFFF" d="M278.805,408.715v1.439h-2.219v6.956h-1.619v-6.956h-2.219v-1.439H278.805z"/>
	<path fill="#FFFFFF" d="M284.865,417.11h-1.5v-0.468c-0.479,0.408-1.031,0.588-1.619,0.588c-0.864,0-1.679-0.384-2.195-0.983
		c-0.456-0.528-0.744-1.248-0.744-2.039c0-1.715,1.271-3.034,2.854-3.034c0.659,0,1.247,0.216,1.703,0.587v-0.468h1.5V417.11z
		 M283.306,413.333c-0.324-0.432-0.84-0.72-1.439-0.72c-0.912,0-1.499,0.755-1.499,1.595c0,0.912,0.66,1.583,1.535,1.583
		c0.587,0,1.104-0.288,1.403-0.72V413.333z"/>
	<path fill="#FFFFFF" d="M289.583,413.908l3.202,3.202h-2.099l-2.459-2.519v2.519h-1.559v-8.515h1.559v4.582l2.003-1.883h2.195
		L289.583,413.908z"/>
	<path fill="#FFFFFF" d="M298.461,416.187c-0.564,0.671-1.487,1.043-2.387,1.043c-1.739,0-3.046-1.2-3.046-3.022
		c0-1.619,1.103-3.034,2.83-3.034c1.607,0,2.747,1.355,2.747,2.974c0,0.156-0.012,0.312-0.036,0.444h-4.03
		c0.084,0.815,0.743,1.379,1.571,1.379c0.66,0,1.188-0.372,1.463-0.672L298.461,416.187z M297.009,413.452
		c-0.048-0.516-0.516-1.019-1.151-1.019c-0.647,0-1.175,0.492-1.247,1.019H297.009z"/>
	<path fill="#FFFFFF" d="M307.545,417.11c-0.204,0.072-0.672,0.12-0.972,0.12c-0.936,0-1.619-0.312-2.015-0.84
		c-0.301-0.396-0.432-0.911-0.432-1.739v-2.039h-1.619v-1.319h1.619v-1.619h1.559v1.619h1.919v1.319h-1.919v2.219
		c0,0.36,0.061,0.576,0.191,0.731c0.156,0.18,0.408,0.288,0.792,0.288c0.228,0,0.528-0.036,0.636-0.06L307.545,417.11z"/>
	<path fill="#FFFFFF" d="M310.426,417.11h-1.559v-8.515h1.559v3.118c0.433-0.336,0.984-0.54,1.584-0.54
		c0.803,0,1.535,0.359,2.015,0.935c0.384,0.456,0.6,1.043,0.6,2.039v2.962h-1.56v-3.083c0-0.576-0.131-0.875-0.348-1.091
		c-0.203-0.204-0.516-0.324-0.875-0.324c-0.66,0-1.199,0.42-1.416,0.72V417.11z"/>
	<path fill="#FFFFFF" d="M321.261,416.187c-0.563,0.671-1.487,1.043-2.387,1.043c-1.739,0-3.046-1.2-3.046-3.022
		c0-1.619,1.103-3.034,2.83-3.034c1.607,0,2.746,1.355,2.746,2.974c0,0.156-0.012,0.312-0.035,0.444h-4.03
		c0.084,0.815,0.743,1.379,1.571,1.379c0.659,0,1.188-0.372,1.463-0.672L321.261,416.187z M319.809,413.452
		c-0.047-0.516-0.516-1.019-1.15-1.019c-0.648,0-1.176,0.492-1.248,1.019H319.809z"/>
	<path fill="#FFFFFF" d="M270.228,424.912c0,1.632,1.247,2.879,2.866,2.879c1.091,0,1.883-0.527,2.375-1.163l1.115,0.995
		c-0.744,0.947-1.991,1.607-3.526,1.607c-2.615,0-4.45-1.907-4.45-4.318c0-2.41,1.811-4.317,4.425-4.317
		c1.248,0,2.315,0.468,3.07,1.199l-1.043,1.104c-0.504-0.504-1.211-0.864-2.039-0.864
		C271.427,422.034,270.228,423.317,270.228,424.912z"/>
	<path fill="#FFFFFF" d="M279.288,429.11h-1.559v-8.515h1.559v3.118c0.432-0.336,0.983-0.539,1.583-0.539
		c0.803,0,1.535,0.359,2.015,0.936c0.384,0.455,0.6,1.043,0.6,2.039v2.962h-1.559v-3.083c0-0.575-0.132-0.875-0.348-1.091
		c-0.204-0.204-0.516-0.323-0.875-0.323c-0.66,0-1.2,0.42-1.416,0.719V429.11z"/>
	<path fill="#FFFFFF" d="M290.746,429.11h-1.5v-0.468c-0.479,0.408-1.031,0.588-1.619,0.588c-0.863,0-1.679-0.384-2.194-0.983
		c-0.456-0.528-0.744-1.247-0.744-2.039c0-1.716,1.271-3.034,2.854-3.034c0.66,0,1.247,0.216,1.703,0.588v-0.469h1.5V429.11z
		 M289.187,425.332c-0.324-0.432-0.84-0.719-1.439-0.719c-0.912,0-1.499,0.755-1.499,1.595c0,0.911,0.66,1.583,1.535,1.583
		c0.587,0,1.104-0.287,1.403-0.72V425.332z"/>
	<path fill="#FFFFFF" d="M294.107,429.11h-1.559v-8.515h1.559V429.11z"/>
	<path fill="#FFFFFF" d="M297.467,429.11h-1.559v-8.515h1.559V429.11z"/>
	<path fill="#FFFFFF" d="M304.222,428.188c-0.563,0.671-1.487,1.043-2.387,1.043c-1.739,0-3.046-1.199-3.046-3.022
		c0-1.619,1.103-3.034,2.831-3.034c1.607,0,2.746,1.355,2.746,2.975c0,0.155-0.012,0.312-0.035,0.443h-4.03
		c0.084,0.815,0.743,1.379,1.571,1.379c0.659,0,1.188-0.371,1.463-0.672L304.222,428.188z M302.77,425.452
		c-0.047-0.516-0.516-1.019-1.15-1.019c-0.648,0-1.176,0.491-1.248,1.019H302.77z"/>
	<path fill="#FFFFFF" d="M305.688,429.11v-5.817h1.5v0.469c0.443-0.36,0.995-0.588,1.643-0.588c0.804,0,1.535,0.359,2.016,0.936
		c0.383,0.455,0.6,1.043,0.6,2.039v2.962h-1.56v-3.083c0-0.575-0.132-0.875-0.348-1.091c-0.204-0.204-0.516-0.323-0.876-0.323
		c-0.659,0-1.199,0.42-1.415,0.719v3.778H305.688z"/>
	<path fill="#FFFFFF" d="M318.705,428.787c0,1.043-0.18,1.666-0.527,2.158c-0.528,0.731-1.464,1.164-2.579,1.164
		c-1.14,0-2.219-0.528-2.794-1.2l0.982-1.019c0.312,0.335,0.852,0.839,1.812,0.839c0.504,0,0.923-0.155,1.188-0.468
		c0.239-0.264,0.36-0.623,0.36-1.367v-0.191c-0.469,0.359-0.973,0.527-1.56,0.527c-0.864,0-1.691-0.384-2.207-0.983
		c-0.456-0.528-0.731-1.247-0.731-2.039c0-1.716,1.271-3.034,2.854-3.034c0.659,0,1.247,0.216,1.702,0.588v-0.469h1.5V428.787z
		 M317.146,425.332c-0.324-0.432-0.84-0.719-1.439-0.719c-0.912,0-1.5,0.755-1.5,1.595c0,0.911,0.66,1.583,1.535,1.583
		c0.588,0,1.104-0.287,1.404-0.72V425.332z"/>
	<path fill="#FFFFFF" d="M325.461,428.188c-0.563,0.671-1.486,1.043-2.387,1.043c-1.738,0-3.046-1.199-3.046-3.022
		c0-1.619,1.103-3.034,2.83-3.034c1.607,0,2.747,1.355,2.747,2.975c0,0.155-0.012,0.312-0.036,0.443h-4.03
		c0.084,0.815,0.744,1.379,1.571,1.379c0.659,0,1.188-0.371,1.464-0.672L325.461,428.188z M324.01,425.452
		c-0.048-0.516-0.516-1.019-1.151-1.019c-0.647,0-1.175,0.491-1.247,1.019H324.01z"/>
</g>
</svg>
