<svg width="259.464" height="52.04" xmlns="http://www.w3.org/2000/svg">

 <g>
  <title>background</title>
  <rect fill="none" id="canvas_background" height="54.04" width="261.464" y="-1" x="-1"/>
 </g>
 <g>
  <title>Layer 1</title>
  <g id="svg_1">
   <path id="svg_2" d="m259.155,15.528c0,-7.964 -6.082,-14.42 -13.584,-14.42l-94.772,0l-41.349,0l-94.773,0c-7.503,0 -13.584,6.456 -13.584,14.42c0,7.965 6.081,14.42 13.584,14.42l94.772,0l41.349,0l94.772,0c7.503,0 13.585,-6.455 13.585,-14.42" fill="#20201E"/>
   <path id="svg_3" d="m237.19,23.744l9.432,0c0.912,0 1.656,-0.721 1.656,-1.633s-0.744,-1.655 -1.656,-1.655l-7.607,0l0,-3.528l6.408,0c0.912,0 1.656,-0.72 1.656,-1.632s-0.744,-1.656 -1.656,-1.656l-6.408,0l0,-3.408l7.488,0c0.912,0 1.656,-0.72 1.656,-1.632s-0.744,-1.656 -1.656,-1.656l-9.312,0c-1.031,0 -1.848,0.816 -1.848,1.849l0,13.104c-0.001,1.03 0.816,1.847 1.847,1.847m-12.545,0.287c2.52,0 4.512,-0.84 5.881,-1.68c0.887,-0.528 1.295,-1.271 1.295,-2.352l0,-4.08c0,-1.032 -0.815,-1.849 -1.848,-1.849l-4.225,0c-0.887,0 -1.607,0.721 -1.607,1.608s0.721,1.584 1.607,1.584l2.496,0l0,2.4c-0.936,0.672 -2.135,1.008 -3.479,1.008c-2.976,0 -5.088,-2.256 -5.088,-5.328l0,-0.048c0,-2.856 2.136,-5.232 4.823,-5.232c1.584,0 2.664,0.433 3.673,1.152c0.264,0.191 0.6,0.384 1.128,0.384c1.008,0 1.824,-0.815 1.824,-1.824c0,-0.72 -0.408,-1.224 -0.769,-1.487c-1.512,-1.057 -3.192,-1.633 -5.735,-1.633c-5.088,0 -8.809,3.912 -8.809,8.688l0,0.048c0.001,4.969 3.601,8.641 8.833,8.641m-26.875,-1.968c0,1.008 0.816,1.824 1.824,1.824s1.824,-0.816 1.824,-1.824l0,-9l7.392,9.696c0.504,0.647 1.032,1.08 1.92,1.08l0.12,0c1.032,0 1.848,-0.816 1.848,-1.849l0,-13.366c0,-1.009 -0.815,-1.824 -1.824,-1.824c-1.008,0 -1.823,0.815 -1.823,1.824l0,8.664l-7.128,-9.36c-0.504,-0.648 -1.032,-1.08 -1.92,-1.08l-0.385,0c-1.031,0 -1.848,0.816 -1.848,1.848l0,13.367zm-14.134,1.681l9.433,0c0.911,0 1.655,-0.721 1.655,-1.633s-0.744,-1.655 -1.655,-1.655l-7.609,0l0,-3.528l6.408,0c0.912,0 1.656,-0.72 1.656,-1.632s-0.744,-1.656 -1.656,-1.656l-6.408,0l0,-3.408l7.488,0c0.912,0 1.656,-0.72 1.656,-1.632s-0.744,-1.656 -1.656,-1.656l-9.312,0c-1.032,0 -1.849,0.816 -1.849,1.849l0,13.104c0.001,1.03 0.817,1.847 1.849,1.847m-16.3,-1.849c0,1.032 0.816,1.849 1.848,1.849l8.688,0c0.937,0 1.681,-0.744 1.681,-1.681c0,-0.936 -0.744,-1.68 -1.681,-1.68l-6.84,0l0,-11.736c0,-1.032 -0.815,-1.848 -1.848,-1.848c-1.031,0 -1.848,0.815 -1.848,1.848l0,13.248zm-14.453,0c0,1.032 0.816,1.849 1.848,1.849l8.688,0c0.937,0 1.681,-0.744 1.681,-1.681c0,-0.936 -0.744,-1.68 -1.681,-1.68l-6.84,0l0,-11.736c0,-1.032 -0.815,-1.848 -1.848,-1.848c-1.031,0 -1.848,0.815 -1.848,1.848l0,13.248zm-13.058,-5.184l2.328,-5.544l2.328,5.544l-4.656,0zm-5.951,5.449c0,0.96 0.744,1.728 1.703,1.728c0.769,0 1.393,-0.432 1.705,-1.152l1.176,-2.76l7.392,0l1.128,2.64c0.336,0.769 0.912,1.272 1.776,1.272c0.983,0 1.752,-0.792 1.752,-1.776c0,-0.239 -0.072,-0.479 -0.192,-0.743l-5.855,-13.225c-0.408,-0.912 -1.129,-1.464 -2.137,-1.464l-0.216,0c-1.008,0 -1.752,0.552 -2.159,1.464l-5.856,13.225c-0.122,0.262 -0.217,0.526 -0.217,0.791m-16.563,-0.12c0,1.031 0.816,1.848 1.848,1.848s1.848,-0.816 1.848,-1.848l0,-5.04l6.816,0l0,5.04c0,1.031 0.816,1.848 1.848,1.848c1.032,0 1.848,-0.816 1.848,-1.848l0,-13.393c0,-1.032 -0.816,-1.848 -1.848,-1.848c-1.032,0 -1.848,0.815 -1.848,1.848l0,4.944l-6.816,0l0,-4.944c0,-1.032 -0.816,-1.848 -1.848,-1.848s-1.848,0.815 -1.848,1.848l0,13.393zm-9.641,1.991c2.688,0 4.464,-0.792 5.976,-2.111c0.336,-0.288 0.624,-0.744 0.624,-1.32c0,-0.936 -0.792,-1.704 -1.728,-1.704c-0.432,0 -0.816,0.168 -1.104,0.408c-1.056,0.84 -2.088,1.32 -3.648,1.32c-2.88,0 -4.872,-2.4 -4.872,-5.28l0,-0.048c0,-2.88 2.04,-5.232 4.872,-5.232c1.32,0 2.4,0.433 3.432,1.2c0.264,0.168 0.6,0.36 1.104,0.36c1.008,0 1.824,-0.792 1.824,-1.801c0,-0.647 -0.336,-1.176 -0.72,-1.464c-1.392,-1.031 -3.096,-1.704 -5.616,-1.704c-5.16,0 -8.76,3.912 -8.76,8.688l0,0.048c0,4.824 3.672,8.64 8.616,8.64m-23.975,-0.048c3.624,0 6.168,-1.872 6.168,-5.208l0,-0.048c0,-2.928 -1.92,-4.151 -5.328,-5.04c-2.904,-0.744 -3.624,-1.104 -3.624,-2.208l0,-0.048c0,-0.816 0.744,-1.464 2.16,-1.464c1.152,0 2.304,0.408 3.528,1.128c0.288,0.168 0.576,0.264 0.936,0.264c0.96,0 1.728,-0.744 1.728,-1.704c0,-0.72 -0.408,-1.224 -0.816,-1.464c-1.512,-0.96 -3.288,-1.487 -5.328,-1.487c-3.432,0 -5.88,2.016 -5.88,5.063l0,0.048c0,3.336 2.184,4.272 5.568,5.137c2.808,0.72 3.384,1.199 3.384,2.136l0,0.048c0,0.984 -0.912,1.584 -2.424,1.584c-1.632,0 -3.024,-0.576 -4.296,-1.512c-0.24,-0.168 -0.576,-0.336 -1.056,-0.336c-0.96,0 -1.728,0.743 -1.728,1.704c0,0.575 0.288,1.104 0.696,1.392c1.872,1.343 4.104,2.015 6.312,2.015m-14.309,-10.128c0,0.433 0.264,0.816 0.912,0.816c0.888,0 1.968,-0.433 2.688,-1.152c0.888,-0.888 1.416,-2.184 1.416,-3.936l0,-0.097c0,-1.655 -0.792,-2.688 -2.136,-2.688c-1.2,0 -1.992,0.84 -1.992,1.968l0,0.048c0,1.032 0.84,1.752 1.68,1.969c0.048,1.151 -0.624,1.991 -1.848,2.279c-0.408,0.098 -0.72,0.361 -0.72,0.793m-14.549,8.185c0,1.031 0.816,1.848 1.848,1.848c1.032,0 1.848,-0.816 1.848,-1.848l0,-4.801l6.48,0c0.936,0 1.68,-0.743 1.68,-1.68c0,-0.936 -0.744,-1.68 -1.68,-1.68l-6.48,0l0,-3.576l7.56,0c0.936,0 1.68,-0.744 1.68,-1.68c0,-0.937 -0.744,-1.681 -1.68,-1.681l-9.408,0c-1.032,0 -1.848,0.816 -1.848,1.849l0,13.249zm-7.756,0c0,1.031 0.816,1.848 1.848,1.848s1.848,-0.816 1.848,-1.848l0,-13.393c0,-1.032 -0.816,-1.848 -1.848,-1.848s-1.848,0.815 -1.848,1.848l0,13.393zm-18.307,0c0,1.031 0.816,1.848 1.848,1.848c1.032,0 1.848,-0.816 1.848,-1.848l0,-5.04l6.816,0l0,5.04c0,1.031 0.816,1.848 1.848,1.848c1.032,0 1.848,-0.816 1.848,-1.848l0,-13.393c0,-1.032 -0.816,-1.848 -1.848,-1.848c-1.032,0 -1.848,0.815 -1.848,1.848l0,4.944l-6.816,0l0,-4.944c0,-1.032 -0.816,-1.848 -1.848,-1.848c-1.032,0 -1.848,0.815 -1.848,1.848l0,13.393zm-9.641,1.991c2.688,0 4.464,-0.792 5.976,-2.111c0.336,-0.288 0.624,-0.744 0.624,-1.32c0,-0.936 -0.792,-1.704 -1.728,-1.704c-0.432,0 -0.816,0.168 -1.104,0.408c-1.056,0.84 -2.088,1.32 -3.648,1.32c-2.88,0 -4.872,-2.4 -4.872,-5.28l0,-0.048c0,-2.88 2.04,-5.232 4.872,-5.232c1.32,0 2.4,0.433 3.432,1.2c0.264,0.168 0.6,0.36 1.104,0.36c1.008,0 1.824,-0.792 1.824,-1.801c0,-0.647 -0.336,-1.176 -0.72,-1.464c-1.392,-1.031 -3.096,-1.704 -5.616,-1.704c-5.16,0 -8.76,3.912 -8.76,8.688l0,0.048c0,4.824 3.672,8.64 8.616,8.64" fill="#FFFFFF"/>
   <path id="svg_4" d="m226.25,46.895c-1.472,0 -2.352,-0.769 -2.352,-1.681l0,-0.031c0,-1.024 1.023,-1.696 2.352,-1.696s2.352,0.672 2.352,1.696l0,0.031c0,0.929 -0.879,1.681 -2.352,1.681m0,-4.977c-1.152,0 -2,-0.688 -2,-1.664l0,-0.031c0,-0.849 0.801,-1.553 2,-1.553c1.2,0 2,0.704 2,1.568l0,0.032c0,0.961 -0.847,1.648 -2,1.648m0,6.624c2.448,0 4.271,-1.248 4.271,-3.248l0,-0.031c0,-1.328 -0.799,-2.129 -2.016,-2.688c0.944,-0.496 1.633,-1.248 1.633,-2.496l0,-0.032c0,-1.728 -1.648,-3.023 -3.889,-3.023s-3.888,1.312 -3.888,3.023l0,0.032c0,1.248 0.688,2 1.632,2.496c-1.264,0.528 -2.016,1.376 -2.016,2.736l0,0.031c0.002,1.921 1.826,3.2 4.273,3.2m-8.704,-0.16l1.952,0l0,-11.279l-1.376,0l-3.008,0.96l0.416,1.6l2.016,-0.56l0,9.279zm-8.399,-1.584c-1.744,0 -2.864,-1.808 -2.864,-4.016l0,-0.032c0,-2.224 1.104,-3.983 2.832,-3.983s2.864,1.808 2.864,4.016l0,0.032c0,2.208 -1.088,3.983 -2.832,3.983m-0.032,1.777c2.944,0 4.896,-2.592 4.896,-5.792l0,-0.033c0,-3.2 -1.936,-5.76 -4.863,-5.76c-2.944,0 -4.896,2.592 -4.896,5.792l0,0.032c-0.002,3.201 1.918,5.761 4.863,5.761m-14.755,-0.193l8.097,0l0,-1.728l-5.328,0l2.304,-1.92c1.984,-1.616 2.912,-2.576 2.912,-4.336l0,-0.032c0,-2 -1.504,-3.344 -3.695,-3.344c-2,0 -3.057,0.848 -4.129,2.352l1.393,1.088c0.863,-1.12 1.568,-1.68 2.592,-1.68c1.024,0 1.809,0.64 1.809,1.744c0,1.008 -0.561,1.728 -2.096,3.023l-3.857,3.28l0,1.553l-0.002,0zm-14.896,0l8.384,0l0,-1.76l-6.416,0l0,-3.008l5.616,0l0,-1.76l-5.616,0l0,-2.912l6.336,0l0,-1.76l-8.304,0l0,11.2zm-12.802,0l1.937,0l0,-7.968l6.176,7.968l1.647,0l0,-11.199l-1.937,0l0,7.743l-6,-7.743l-1.823,0l0,11.199zm-7.732,0.177c2.928,0 4.815,-1.681 4.815,-5.024l0,-6.352l-1.968,0l0,6.447c0,2.064 -1.072,3.12 -2.816,3.12c-1.76,0 -2.832,-1.12 -2.832,-3.2l0,-6.367l-1.968,0l0,6.447c0.001,3.248 1.857,4.929 4.769,4.929m-11.324,-0.017c1.121,0 2.064,-0.336 2.721,-0.992c0.656,-0.655 1.04,-1.647 1.04,-2.976l0,-7.392l-2.017,0l0,7.344c0,1.488 -0.72,2.191 -1.775,2.191c-0.944,0 -1.6,-0.479 -2.256,-1.312l-1.297,1.328c0.736,1.01 1.856,1.809 3.584,1.809m-14.047,-5.744c-1.393,0 -2.289,-0.832 -2.289,-2l0,-0.031c0,-1.152 0.832,-2.08 2.225,-2.08c1.424,0 2.336,0.896 2.336,2.063l0,0.032c0,1.089 -0.848,2.016 -2.272,2.016m-0.416,5.777c3.008,0 4.799,-2.496 4.799,-6.096l0,-0.032c0,-2.208 -0.527,-3.44 -1.359,-4.272c-0.784,-0.783 -1.695,-1.184 -3.104,-1.184c-2.48,0 -4.176,1.68 -4.176,3.872l0,0.032c0,2.16 1.584,3.552 3.967,3.552c1.201,0 2.064,-0.512 2.625,-1.184c-0.064,2.063 -1.057,3.52 -2.705,3.52c-0.959,0 -1.711,-0.336 -2.56,-1.056l-1.072,1.504c0.944,0.784 2.032,1.344 3.585,1.344m-16.336,-0.193l1.984,0l0,-4.464l4.448,-6.735l-2.256,0l-3.168,4.96l-3.136,-4.96l-2.32,0l4.448,6.783l0,4.416zm-11.533,-4.447l1.92,-4.48l1.936,4.48l-3.856,0zm-3.887,4.447l2.016,0l1.152,-2.704l5.296,0l1.136,2.704l2.08,0l-4.928,-11.279l-1.824,0l-4.928,11.279zm-8.929,-1.792l0,-7.615l2.208,0c2.352,0 3.888,1.615 3.888,3.808l0,0.032c0,2.191 -1.536,3.775 -3.888,3.775l-2.208,0zm-1.967,1.792l4.176,0c3.52,0 5.952,-2.447 5.952,-5.6l0,-0.032c0,-3.151 -2.432,-5.567 -5.952,-5.567l-4.176,0l0,11.199zm-9.709,-5.647l0,-3.76l2.864,0c1.456,0 2.32,0.655 2.32,1.855l0,0.032c0,1.136 -0.896,1.872 -2.304,1.872l-2.88,0l0,0.001zm-1.969,5.647l1.968,0l0,-3.903l2.464,0l2.752,3.903l2.32,0l-3.024,-4.239c1.568,-0.448 2.672,-1.553 2.672,-3.393l0,-0.032c0,-0.976 -0.336,-1.808 -0.928,-2.416c-0.72,-0.703 -1.824,-1.119 -3.232,-1.119l-4.992,0l0,11.199zm-7.732,0.177c2.928,0 4.816,-1.681 4.816,-5.024l0,-6.352l-1.968,0l0,6.447c0,2.064 -1.072,3.12 -2.816,3.12c-1.76,0 -2.832,-1.12 -2.832,-3.2l0,-6.367l-1.968,0l0,6.447c-0.001,3.248 1.855,4.929 4.768,4.929m-12.185,-0.177l1.984,0l0,-9.376l3.552,0l0,-1.823l-9.088,0l0,1.823l3.552,0l0,9.376zm-11.048,-4.447l1.92,-4.48l1.936,4.48l-3.856,0zm-3.889,4.447l2.016,0l1.152,-2.704l5.296,0l1.136,2.704l2.08,0l-4.928,-11.279l-1.824,0l-4.928,11.279zm-5.144,0.16c2.352,0 4,-1.248 4,-3.344l0,-0.032c0,-1.855 -1.232,-2.704 -3.6,-3.28c-2.144,-0.512 -2.656,-0.896 -2.656,-1.76l0,-0.032c0,-0.735 0.672,-1.327 1.824,-1.327c1.024,0 2.032,0.399 3.04,1.151l1.056,-1.487c-1.136,-0.912 -2.432,-1.408 -4.064,-1.408c-2.224,0 -3.824,1.328 -3.824,3.248l0,0.031c0,2.064 1.344,2.769 3.728,3.345c2.08,0.479 2.528,0.912 2.528,1.712l0,0.032c0,0.848 -0.768,1.407 -1.984,1.407c-1.392,0 -2.464,-0.527 -3.536,-1.456l-1.184,1.408c1.345,1.201 2.961,1.792 4.672,1.792" fill="#FFFFFF"/>
  </g>
 </g>
</svg>