<?xml version="1.0" encoding="utf-8"?>
<!-- Generator: Adobe Illustrator 15.0.2, SVG Export Plug-In . SVG Version: 6.00 Build 0)  -->
<!DOCTYPE svg PUBLIC "-//W3C//DTD SVG 1.1//EN" "http://www.w3.org/Graphics/SVG/1.1/DTD/svg11.dtd">
<svg version="1.1" id="Layer_1" xmlns="http://www.w3.org/2000/svg" xmlns:xlink="http://www.w3.org/1999/xlink" x="0px" y="0px"
	 width="595.279px" height="841.89px" viewBox="0 0 595.279 841.89" enable-background="new 0 0 595.279 841.89"
	 xml:space="preserve">
<path d="M271.155,32.528c0-7.964-6.082-14.42-13.584-14.42h-94.772H121.45H26.677c-7.503,0-13.584,6.456-13.584,14.42
	c0,7.965,6.081,14.42,13.584,14.42h94.772h41.349h94.771C265.073,46.948,271.155,40.493,271.155,32.528"/>
<path fill="#FFFFFF" d="M249.19,40.744h9.433c0.912,0,1.655-0.721,1.655-1.633c0-0.912-0.743-1.655-1.655-1.655h-7.607v-3.528h6.408
	c0.912,0,1.656-0.72,1.656-1.632s-0.744-1.656-1.656-1.656h-6.408v-3.408h7.488c0.912,0,1.656-0.72,1.656-1.632
	s-0.744-1.656-1.656-1.656h-9.312c-1.031,0-1.848,0.816-1.848,1.849v13.104C247.342,39.927,248.16,40.744,249.19,40.744
	 M236.645,41.031c2.521,0,4.513-0.84,5.881-1.68c0.888-0.528,1.295-1.271,1.295-2.352v-4.08c0-1.032-0.815-1.849-1.848-1.849h-4.226
	c-0.887,0-1.606,0.721-1.606,1.608c0,0.887,0.721,1.584,1.606,1.584h2.496v2.4c-0.936,0.672-2.135,1.008-3.479,1.008
	c-2.977,0-5.088-2.256-5.088-5.328v-0.048c0-2.856,2.136-5.232,4.822-5.232c1.584,0,2.664,0.433,3.674,1.152
	c0.264,0.191,0.6,0.384,1.127,0.384c1.009,0,1.824-0.815,1.824-1.824c0-0.72-0.408-1.224-0.769-1.487
	c-1.512-1.057-3.192-1.633-5.735-1.633c-5.088,0-8.809,3.912-8.809,8.688v0.048C227.813,37.359,231.414,41.031,236.645,41.031
	 M209.77,39.063c0,1.008,0.815,1.824,1.824,1.824c1.008,0,1.823-0.816,1.823-1.824v-9l7.393,9.696c0.504,0.647,1.031,1.08,1.92,1.08
	h0.12c1.032,0,1.849-0.816,1.849-1.849V25.624c0-1.009-0.816-1.824-1.824-1.824s-1.824,0.815-1.824,1.824v8.664l-7.127-9.36
	c-0.504-0.647-1.032-1.08-1.92-1.08h-0.385c-1.031,0-1.849,0.816-1.849,1.848V39.063z M195.636,40.744h9.433
	c0.911,0,1.655-0.721,1.655-1.633c0-0.912-0.744-1.655-1.655-1.655h-7.608v-3.528h6.408c0.911,0,1.655-0.72,1.655-1.632
	s-0.744-1.656-1.655-1.656h-6.408v-3.408h7.488c0.911,0,1.655-0.72,1.655-1.632s-0.744-1.656-1.655-1.656h-9.312
	c-1.032,0-1.85,0.816-1.85,1.849v13.104C193.789,39.927,194.604,40.744,195.636,40.744 M179.336,38.895
	c0,1.032,0.816,1.849,1.849,1.849h8.688c0.937,0,1.681-0.744,1.681-1.681c0-0.936-0.744-1.68-1.681-1.68h-6.84V25.647
	c0-1.032-0.816-1.848-1.849-1.848c-1.031,0-1.849,0.815-1.849,1.848V38.895z M164.883,38.895c0,1.032,0.816,1.849,1.849,1.849h8.688
	c0.937,0,1.681-0.744,1.681-1.681c0-0.936-0.744-1.68-1.681-1.68h-6.84V25.647c0-1.032-0.815-1.848-1.849-1.848
	c-1.03,0-1.849,0.815-1.849,1.848V38.895z M151.826,33.711l2.327-5.544l2.328,5.544H151.826z M145.875,39.16
	c0,0.96,0.744,1.728,1.703,1.728c0.769,0,1.393-0.432,1.705-1.152l1.176-2.76h7.392l1.128,2.64c0.336,0.769,0.912,1.272,1.775,1.272
	c0.983,0,1.752-0.792,1.752-1.776c0-0.239-0.071-0.479-0.191-0.743l-5.855-13.225c-0.408-0.912-1.129-1.464-2.137-1.464h-0.216
	c-1.008,0-1.752,0.552-2.159,1.464l-5.855,13.225C145.969,38.631,145.875,38.895,145.875,39.16 M129.311,39.04
	c0,1.031,0.816,1.848,1.848,1.848c1.032,0,1.848-0.816,1.848-1.848V34h6.816v5.04c0,1.031,0.816,1.848,1.848,1.848
	s1.848-0.816,1.848-1.848V25.647c0-1.032-0.816-1.848-1.848-1.848s-1.848,0.815-1.848,1.848v4.944h-6.816v-4.944
	c0-1.032-0.816-1.848-1.848-1.848c-1.032,0-1.848,0.815-1.848,1.848V39.04z M119.67,41.031c2.688,0,4.464-0.792,5.976-2.111
	c0.336-0.288,0.624-0.744,0.624-1.32c0-0.936-0.792-1.704-1.728-1.704c-0.432,0-0.816,0.168-1.104,0.408
	c-1.056,0.84-2.088,1.32-3.648,1.32c-2.88,0-4.872-2.4-4.872-5.28v-0.048c0-2.88,2.04-5.232,4.872-5.232c1.32,0,2.4,0.433,3.432,1.2
	c0.264,0.168,0.6,0.36,1.104,0.36c1.008,0,1.824-0.792,1.824-1.801c0-0.647-0.336-1.176-0.72-1.464
	c-1.392-1.031-3.096-1.704-5.616-1.704c-5.16,0-8.76,3.912-8.76,8.688v0.048C111.054,37.215,114.726,41.031,119.67,41.031
	 M95.695,40.983c3.624,0,6.168-1.872,6.168-5.208v-0.048c0-2.928-1.92-4.151-5.328-5.04c-2.904-0.744-3.624-1.104-3.624-2.208
	v-0.048c0-0.816,0.744-1.464,2.16-1.464c1.152,0,2.304,0.408,3.528,1.128c0.288,0.168,0.576,0.264,0.936,0.264
	c0.96,0,1.728-0.744,1.728-1.704c0-0.72-0.408-1.224-0.816-1.464c-1.512-0.96-3.288-1.487-5.328-1.487
	c-3.432,0-5.88,2.016-5.88,5.063v0.048c0,3.336,2.184,4.272,5.568,5.137c2.808,0.72,3.384,1.199,3.384,2.136v0.048
	c0,0.984-0.912,1.584-2.424,1.584c-1.632,0-3.024-0.576-4.296-1.512c-0.24-0.168-0.576-0.336-1.056-0.336
	c-0.96,0-1.728,0.743-1.728,1.704c0,0.575,0.288,1.104,0.696,1.392C91.255,40.311,93.487,40.983,95.695,40.983 M81.386,30.855
	c0,0.433,0.264,0.816,0.912,0.816c0.888,0,1.968-0.433,2.688-1.152c0.888-0.888,1.416-2.184,1.416-3.936v-0.097
	c0-1.655-0.792-2.688-2.136-2.688c-1.2,0-1.992,0.84-1.992,1.968v0.048c0,1.032,0.84,1.752,1.68,1.969
	c0.048,1.151-0.624,1.991-1.848,2.279C81.698,30.16,81.386,30.423,81.386,30.855 M66.837,39.04c0,1.031,0.816,1.848,1.848,1.848
	c1.032,0,1.848-0.816,1.848-1.848v-4.801h6.48c0.936,0,1.68-0.743,1.68-1.68c0-0.936-0.744-1.68-1.68-1.68h-6.48v-3.576h7.56
	c0.936,0,1.68-0.744,1.68-1.68c0-0.937-0.744-1.681-1.68-1.681h-9.408c-1.032,0-1.848,0.816-1.848,1.849V39.04z M59.081,39.04
	c0,1.031,0.816,1.848,1.848,1.848c1.032,0,1.848-0.816,1.848-1.848V25.647c0-1.032-0.816-1.848-1.848-1.848
	c-1.032,0-1.848,0.815-1.848,1.848V39.04z M40.774,39.04c0,1.031,0.816,1.848,1.848,1.848c1.032,0,1.848-0.816,1.848-1.848V34h6.816
	v5.04c0,1.031,0.816,1.848,1.848,1.848c1.032,0,1.848-0.816,1.848-1.848V25.647c0-1.032-0.816-1.848-1.848-1.848
	c-1.032,0-1.848,0.815-1.848,1.848v4.944H44.47v-4.944c0-1.032-0.816-1.848-1.848-1.848c-1.032,0-1.848,0.815-1.848,1.848V39.04z
	 M31.133,41.031c2.688,0,4.464-0.792,5.976-2.111c0.336-0.288,0.624-0.744,0.624-1.32c0-0.936-0.792-1.704-1.728-1.704
	c-0.432,0-0.816,0.168-1.104,0.408c-1.056,0.84-2.088,1.32-3.648,1.32c-2.88,0-4.872-2.4-4.872-5.28v-0.048
	c0-2.88,2.04-5.232,4.872-5.232c1.32,0,2.4,0.433,3.432,1.2c0.264,0.168,0.6,0.36,1.104,0.36c1.008,0,1.824-0.792,1.824-1.801
	c0-0.647-0.336-1.176-0.72-1.464c-1.392-1.031-3.096-1.704-5.616-1.704c-5.16,0-8.76,3.912-8.76,8.688v0.048
	C22.517,37.215,26.189,41.031,31.133,41.031"/>
</svg>
