<?xml version="1.0" encoding="utf-8"?>
<!-- Generator: Adobe Illustrator 15.0.2, SVG Export Plug-In . SVG Version: 6.00 Build 0)  -->
<!DOCTYPE svg PUBLIC "-//W3C//DTD SVG 1.1//EN" "http://www.w3.org/Graphics/SVG/1.1/DTD/svg11.dtd">
<svg version="1.1" id="Layer_1" xmlns="http://www.w3.org/2000/svg" xmlns:xlink="http://www.w3.org/1999/xlink" x="0px" y="0px"
	 width="595.279px" height="841.891px" viewBox="0 0 595.279 841.891" enable-background="new 0 0 595.279 841.891"
	 xml:space="preserve">
<g display="none">
	<rect x="-508.463" y="-1860.857" display="inline" width="8805.182" height="4390.192"/>
</g>
<g display="none">
	<g display="inline">
		<g>
			<rect x="0" y="520.45" width="595.279" height="123.725"/>
		</g>
		<g>
			<rect x="0" y="284.682" width="595.279" height="123.726"/>
		</g>
		<g>
			<rect x="0" y="48.895" width="595.279" height="123.725"/>
		</g>
	</g>
</g>
<g display="none">
	<rect x="0" y="520.45" display="inline" width="595.279" height="123.725"/>
	<rect x="0" y="284.682" display="inline" width="595.279" height="123.726"/>
	<rect x="0" y="48.895" display="inline" width="595.279" height="123.725"/>
</g>
<text transform="matrix(1 0 0 1 2.445579e-04 923.2109)" display="none" enable-background="new    " font-family="'HelveticaNeue-Bold'" font-size="93.0125">Created by AlfredoCreates.com/Icons</text>
<text transform="matrix(1 0 0 1 2.445579e-04 1016.2266)" font-family="'HelveticaNeue-Bold'" font-size="93.0125">from the Noun Project</text>
<polygon fill="#FFFFFF" points="595.277,80.017 562.706,47.492 297.617,312.56 32.551,47.492 0.003,80.017 265.093,345.106 
	0.003,610.196 32.528,642.743 297.617,377.654 562.706,642.743 595.277,610.196 330.188,345.106 "/>
</svg>
