<?xml version="1.0" encoding="utf-8"?>
<!-- Generator: Adobe Illustrator 15.0.2, SVG Export Plug-In . SVG Version: 6.00 Build 0)  -->
<!DOCTYPE svg PUBLIC "-//W3C//DTD SVG 1.1//EN" "http://www.w3.org/Graphics/SVG/1.1/DTD/svg11.dtd">
<svg version="1.1" id="Layer_1" xmlns="http://www.w3.org/2000/svg" xmlns:xlink="http://www.w3.org/1999/xlink" x="0px" y="0px"
     width="113.386px" height="42.52px" viewBox="0 0 113.386 42.52" enable-background="new 0 0 113.386 42.52" xml:space="preserve">
<g>
    <path fill="#FFFFFF" d="M27.285,28.423c0,0.97,0.398,1.816,1.817,1.816c1.418,0,1.817-0.847,1.817-1.816v-5.996
        c0-1.817,1.493-2.863,2.762-2.863c1.567,0,2.289,1.046,2.289,2.514v6.346c0,0.97,0.398,1.816,1.816,1.816
        c1.419,0,1.817-0.847,1.817-1.816v-7.067c0-3.683-2.389-4.777-4.579-4.777c-2.065,0-3.384,0.945-4.404,2.289h-0.05v-0.473
        c0-1.095-0.497-1.816-1.642-1.816s-1.643,0.722-1.643,1.816V28.423z M53.289,24.094c1.22,0,1.593-0.324,1.593-1.568
        c0-2.986-2.389-5.947-6.569-5.947c-4.305,0-6.869,2.836-6.869,7.067c0,3.16,1.917,6.594,6.993,6.594c2.19,0,5.698-1.02,5.698-3.21
        c0-0.672-0.622-1.418-1.492-1.418c-1.469,0-1.469,1.791-4.206,1.791c-2.115,0-3.359-1.394-3.359-3.309H53.289z M45.078,22.003
        c0.398-1.768,1.493-2.887,3.309-2.887c1.618,0,2.862,1.22,3.061,2.887H45.078z M58.516,28.274c0.521,1.717,0.92,1.966,2.363,1.966
        c1.518,0,1.891-0.448,2.265-1.891l1.791-7.143h0.049l1.793,7.143c0.373,1.442,0.746,1.891,2.265,1.891
        c1.442,0,1.84-0.249,2.363-1.966l2.662-8.659c0.126-0.398,0.249-0.797,0.249-1.344c0-0.946-0.847-1.692-1.767-1.692
        c-1.344,0-1.567,0.722-1.791,1.768l-1.791,7.962h-0.051l-1.567-7.241c-0.324-1.444-0.673-2.539-2.39-2.488
        c-1.691-0.051-1.99,1.07-2.289,2.488l-1.543,7.241h-0.049l-1.916-7.962c-0.25-1.046-0.449-1.768-1.792-1.768
        c-0.92,0-1.766,0.746-1.766,1.692c0,0.547,0.123,0.945,0.249,1.344L58.516,28.274z M75.785,28.423c0,1.194,0.721,1.816,1.816,1.816
        c1.094,0,1.816-0.622,1.816-1.816V13.493c0-1.194-0.723-1.816-1.816-1.816c-1.096,0-1.816,0.622-1.816,1.816V28.423z
         M82.205,28.423c0,0.97,0.397,1.816,1.816,1.816c1.418,0,1.816-0.847,1.816-1.816V18.395c0-0.97-0.398-1.816-1.816-1.816
        c-1.419,0-1.816,0.847-1.816,1.816V28.423z M82.129,13.468c0,1.045,0.847,1.891,1.893,1.891c1.044,0,1.891-0.846,1.891-1.891
        s-0.847-1.892-1.891-1.892C82.976,11.577,82.129,12.423,82.129,13.468 M89.57,28.423c0,1.194,0.723,1.816,1.816,1.816
        c1.095,0,1.816-0.622,1.816-1.816v-9.133h1.119c1.07,0,1.643-0.322,1.643-1.194c0-0.871-0.572-1.194-1.643-1.194h-1.119v-1.568
        c0-0.496,0.273-0.846,0.797-0.846c0.273,0,0.522,0.075,0.795,0.075c0.647,0,1.17-0.573,1.17-1.244c0-1.22-1.069-1.742-2.389-1.742
        c-2.115,0-4.006,1.22-4.006,3.51v1.815h-0.822c-1.02,0-1.442,0.398-1.442,1.194c0,0.797,0.423,1.194,1.442,1.194h0.822V28.423z
         M108.433,24.094c1.219,0,1.592-0.324,1.592-1.568c0-2.986-2.39-5.947-6.569-5.947c-4.305,0-6.869,2.836-6.869,7.067
        c0,3.16,1.918,6.594,6.994,6.594c2.189,0,5.698-1.02,5.698-3.21c0-0.672-0.622-1.418-1.493-1.418c-1.468,0-1.468,1.791-4.205,1.791
        c-2.115,0-3.359-1.394-3.359-3.309H108.433z M100.221,22.003c0.398-1.768,1.492-2.887,3.31-2.887c1.617,0,2.861,1.22,3.062,2.887
        H100.221z"/>
    <path fill="#FFFFFF" d="M21.417,24.999c1.496-1.771,1.852-3.85,1.006-5.852c-0.981-2.321-2.685-3.846-5.05-4.562
        c0.796-2.756-0.153-5.557-2.306-6.438c-0.445-0.184-0.917-0.275-1.403-0.275c-2.022,0-3.989,1.569-4.896,3.905
        c-0.455,1.17-0.565,2.369-0.403,3.456c-1.441,0.71-4.82,2.912-5.271,8.085c-0.467,5.358,3.145,6.868,3.299,6.931l0.116,0.047
        h13.968c0.148,0,0.278-0.059,0.388-0.141c0.143-0.088,0.257-0.223,0.3-0.397c0.307-1.264,0.57-3.069,0.183-4.707
        C21.37,25.031,21.397,25.022,21.417,24.999z M9.986,12.25c0.703-1.808,2.215-3.071,3.678-3.071c0.315,0,0.621,0.06,0.907,0.178
        c1.658,0.68,2.286,3.09,1.4,5.373c-0.703,1.807-2.215,3.07-3.677,3.07c-0.316,0-0.621-0.06-0.908-0.177
        C9.728,16.943,9.099,14.533,9.986,12.25z M4.396,23.43c0.371-4.264,2.992-6.196,4.326-6.912c0.43,1.053,1.16,1.9,2.167,2.313
        c0.445,0.182,0.917,0.274,1.404,0.274c1.838,0,3.623-1.306,4.614-3.298c2.024,0.592,3.479,1.879,4.312,3.849
        c0.695,1.644,0.234,3.01-0.418,3.984c-0.358-0.633-0.871-1.193-1.588-1.628c0.52-1.458,0.014-3.057-1.238-3.689
        c-0.348-0.177-0.723-0.265-1.116-0.265c-1.11,0-2.172,0.722-2.708,1.838c-0.368,0.771-0.428,1.607-0.228,2.337
        c-2.809,1.723-3.174,4.817-2.905,6.755H6.78C6.279,28.733,4.054,27.363,4.396,23.43z M12.349,28.989
        c-0.167-1.08-0.335-4.009,2.21-5.61c0.2,0.219,0.428,0.413,0.702,0.551c0.348,0.176,0.723,0.266,1.116,0.266
        c0.814,0,1.6-0.391,2.173-1.038c1.543,0.969,2.036,2.967,1.436,5.832H12.349z M17.906,21.792c-0.319,0.665-0.919,1.095-1.529,1.095
        c-0.186,0-0.364-0.042-0.527-0.124c-0.72-0.363-0.953-1.396-0.52-2.302c0.319-0.666,0.919-1.096,1.529-1.096
        c0.187,0,0.364,0.042,0.527,0.124C18.106,19.853,18.34,20.886,17.906,21.792z"/>
    <path fill="#FFFFFF" d="M5.362,37.261h0.746v-2.659h0.895v-0.623H4.481v0.623h0.881V37.261z M7.983,33.979v3.282h0.745v-1.373
        h1.222v1.373h0.741v-3.282H9.951v1.261H8.729v-1.261H7.983z M13.876,35.269h-1.208v-0.681h1.281v-0.609h-2.026v3.282h2.095v-0.609
        h-1.35v-0.779h1.208V35.269z M18.878,36.589c-0.146,0.059-0.394,0.106-0.618,0.106c-0.663,0-1.053-0.414-1.053-1.071
        c0-0.73,0.459-1.087,1.048-1.087c0.262,0,0.472,0.06,0.623,0.122l0.151-0.589c-0.131-0.067-0.423-0.146-0.809-0.146
        c-0.993,0-1.792,0.623-1.792,1.743c0,0.936,0.585,1.642,1.719,1.642c0.401,0,0.707-0.073,0.844-0.142L18.878,36.589z
         M20.062,33.979v3.282h0.745v-1.373h1.223v1.373h0.74v-3.282h-0.74v1.261h-1.223v-1.261H20.062z M25.708,36.417l0.253,0.844h0.799
        l-1.018-3.282h-0.974l-1.004,3.282h0.77l0.234-0.844H25.708z M24.875,35.863l0.195-0.696c0.053-0.189,0.102-0.438,0.151-0.633h0.01
        c0.048,0.194,0.107,0.438,0.165,0.633l0.205,0.696H24.875z M27.783,37.261h0.735v-1.29h0.224c0.303,0.004,0.444,0.116,0.532,0.524
        c0.097,0.405,0.175,0.673,0.228,0.766h0.76c-0.064-0.126-0.165-0.556-0.268-0.925c-0.083-0.303-0.209-0.521-0.438-0.614v-0.016
        c0.282-0.102,0.58-0.389,0.58-0.808c0-0.302-0.107-0.531-0.303-0.687c-0.233-0.186-0.574-0.259-1.061-0.259
        c-0.395,0-0.75,0.029-0.989,0.069V37.261z M28.518,34.529c0.054-0.01,0.156-0.024,0.336-0.024c0.341,0.005,0.546,0.155,0.546,0.458
        c0,0.287-0.219,0.472-0.589,0.472h-0.293V34.529z M31.254,37.261H32v-3.282h-0.746V37.261z M33.861,37.261h0.745v-2.659h0.895
        v-0.623h-2.522v0.623h0.882V37.261z M38.016,37.261v-1.368l1.081-1.914h-0.833l-0.331,0.788c-0.097,0.233-0.175,0.424-0.248,0.629
        h-0.011c-0.082-0.215-0.15-0.39-0.253-0.629l-0.336-0.788h-0.847l1.038,1.938v1.345H38.016z M41.507,37.261h0.746v-1.32h1.178
        v-0.604h-1.178v-0.749h1.261v-0.609h-2.007V37.261z M46.106,33.925c-0.97,0-1.598,0.734-1.598,1.72c0,0.934,0.57,1.67,1.544,1.67
        c0.96,0,1.612-0.652,1.612-1.729C47.665,34.68,47.114,33.925,46.106,33.925 M46.086,34.514c0.512,0,0.794,0.507,0.794,1.096
        c0,0.638-0.288,1.116-0.789,1.116c-0.497,0-0.799-0.453-0.799-1.096C45.292,34.992,45.584,34.514,46.086,34.514 M48.735,37.261
        h0.736v-1.29h0.224c0.302,0.004,0.443,0.116,0.531,0.524c0.097,0.405,0.175,0.673,0.229,0.766h0.76
        c-0.064-0.126-0.165-0.556-0.268-0.925c-0.083-0.303-0.209-0.521-0.439-0.614v-0.016c0.283-0.102,0.58-0.389,0.58-0.808
        c0-0.302-0.107-0.531-0.302-0.687c-0.234-0.186-0.575-0.259-1.062-0.259c-0.394,0-0.75,0.029-0.989,0.069V37.261z M49.472,34.529
        c0.053-0.01,0.156-0.024,0.336-0.024c0.341,0.005,0.545,0.155,0.545,0.458c0,0.287-0.219,0.472-0.589,0.472h-0.292V34.529z
         M53.68,37.247c0.185,0.024,0.458,0.049,0.843,0.049c0.642,0,1.168-0.137,1.515-0.424c0.316-0.268,0.545-0.701,0.545-1.33
        c0-0.579-0.214-0.983-0.555-1.236c-0.317-0.239-0.721-0.352-1.345-0.352c-0.374,0-0.73,0.025-1.003,0.069V37.247z M54.424,34.553
        c0.064-0.016,0.171-0.029,0.337-0.029c0.638,0,1.037,0.36,1.032,1.042c0,0.784-0.438,1.154-1.111,1.15
        c-0.092,0-0.194,0-0.258-0.015V34.553z M57.653,37.261h0.746v-3.282h-0.746V37.261z M59.5,37.11c0.186,0.104,0.556,0.2,0.931,0.2
        c0.901,0,1.325-0.468,1.325-1.019c0-0.463-0.273-0.765-0.854-0.979c-0.423-0.161-0.609-0.253-0.609-0.463
        c0-0.17,0.156-0.316,0.479-0.316c0.321,0,0.555,0.093,0.686,0.155l0.166-0.599c-0.193-0.087-0.467-0.165-0.836-0.165
        c-0.775,0-1.242,0.428-1.242,0.988c0,0.478,0.354,0.779,0.9,0.97c0.395,0.142,0.551,0.258,0.551,0.463
        c0,0.214-0.181,0.355-0.521,0.355c-0.316,0-0.624-0.103-0.824-0.206L59.5,37.11z M64.547,36.417l0.252,0.844h0.8l-1.019-3.282
        h-0.974l-1.004,3.282h0.771l0.233-0.844H64.547z M63.713,35.863l0.195-0.696c0.053-0.189,0.103-0.438,0.151-0.633h0.009
        c0.049,0.194,0.107,0.438,0.166,0.633l0.205,0.696H63.713z M66.621,37.247c0.166,0.024,0.438,0.049,0.803,0.049
        c0.654,0,1.053-0.106,1.291-0.297c0.205-0.167,0.342-0.399,0.342-0.696c0-0.424-0.277-0.706-0.653-0.81v-0.01
        c0.371-0.136,0.541-0.409,0.541-0.701c0-0.297-0.165-0.521-0.394-0.643c-0.239-0.142-0.518-0.186-0.971-0.186
        c-0.369,0-0.765,0.029-0.959,0.069V37.247z M67.356,34.514c0.063-0.01,0.156-0.02,0.317-0.02c0.336,0,0.525,0.132,0.525,0.38
        c0,0.243-0.209,0.404-0.599,0.404h-0.244V34.514z M67.356,35.809h0.253c0.37,0,0.668,0.132,0.668,0.464
        c0,0.345-0.298,0.472-0.633,0.472c-0.127,0-0.215,0-0.288-0.01V35.809z M70.147,37.261h2.05v-0.623h-1.305v-2.659h-0.745V37.261z
         M75.174,35.269h-1.207v-0.681h1.279v-0.609h-2.025v3.282h2.095v-0.609h-1.349v-0.779h1.207V35.269z M76.406,37.247
        c0.186,0.024,0.459,0.049,0.842,0.049c0.644,0,1.17-0.137,1.516-0.424c0.316-0.268,0.546-0.701,0.546-1.33
        c0-0.579-0.214-0.983-0.556-1.236c-0.316-0.239-0.721-0.352-1.344-0.352c-0.375,0-0.731,0.025-1.004,0.069V37.247z M77.151,34.553
        c0.063-0.016,0.17-0.029,0.336-0.029c0.638,0,1.038,0.36,1.033,1.042c0,0.784-0.438,1.154-1.11,1.15c-0.094,0-0.195,0-0.259-0.015
        V34.553z M84.15,36.589c-0.146,0.059-0.395,0.106-0.619,0.106c-0.662,0-1.052-0.414-1.052-1.071c0-0.73,0.458-1.087,1.047-1.087
        c0.265,0,0.474,0.06,0.624,0.122l0.151-0.589c-0.132-0.067-0.425-0.146-0.808-0.146c-0.994,0-1.793,0.623-1.793,1.743
        c0,0.936,0.584,1.642,1.719,1.642c0.399,0,0.705-0.073,0.843-0.142L84.15,36.589z M85.334,33.979v3.282h0.744v-1.373h1.225v1.373
        h0.738v-3.282h-0.738v1.261h-1.225v-1.261H85.334z M89.274,37.261h0.745v-3.282h-0.745V37.261z M91.248,37.261h2.049v-0.623h-1.305
        v-2.659h-0.744V37.261z M94.32,37.247c0.186,0.024,0.458,0.049,0.844,0.049c0.643,0,1.168-0.137,1.515-0.424
        c0.315-0.268,0.545-0.701,0.545-1.33c0-0.579-0.216-0.983-0.556-1.236c-0.316-0.239-0.721-0.352-1.344-0.352
        c-0.375,0-0.73,0.025-1.004,0.069V37.247z M95.065,34.553c0.063-0.016,0.17-0.029,0.336-0.029c0.64,0,1.038,0.36,1.033,1.042
        c0,0.784-0.438,1.154-1.11,1.15c-0.093,0-0.195,0-0.259-0.015V34.553z M98.295,37.261h0.736v-1.29h0.223
        c0.303,0.004,0.443,0.116,0.531,0.524c0.098,0.405,0.176,0.673,0.229,0.766h0.76c-0.063-0.126-0.166-0.556-0.269-0.925
        c-0.082-0.303-0.209-0.521-0.438-0.614v-0.016c0.282-0.102,0.579-0.389,0.579-0.808c0-0.302-0.106-0.531-0.301-0.687
        c-0.234-0.186-0.575-0.259-1.062-0.259c-0.396,0-0.752,0.029-0.99,0.069V37.261z M99.031,34.529
        c0.053-0.01,0.155-0.024,0.336-0.024c0.34,0.005,0.545,0.155,0.545,0.458c0,0.287-0.22,0.472-0.59,0.472h-0.291V34.529z
         M103.721,35.269h-1.208v-0.681h1.28v-0.609h-2.025v3.282h2.094v-0.609h-1.349v-0.779h1.208V35.269z M105.636,37.261v-0.988
        c0-0.536-0.011-0.999-0.03-1.432l0.016-0.007c0.16,0.387,0.375,0.811,0.569,1.16l0.701,1.267h0.78v-3.282h-0.682v0.959
        c0,0.492,0.014,0.935,0.062,1.369h-0.016c-0.146-0.371-0.341-0.78-0.535-1.126l-0.682-1.202h-0.867v3.282H105.636z"/>
    <path fill="#FFFFFF" d="M70.13,9.476h1.016V7.687h2.204V6.764h-2.204V5.78h2.501V4.857H70.13V9.476z M66.564,8.619
        c-0.82,0-1.4-0.66-1.4-1.453V7.153c0-0.792,0.568-1.438,1.387-1.438s1.398,0.659,1.398,1.451V7.18
        C67.949,7.972,67.383,8.619,66.564,8.619 M66.551,9.555c1.426,0,2.461-1.075,2.461-2.39V7.153c0-1.313-1.021-2.375-2.447-2.375
        c-1.427,0-2.462,1.075-2.462,2.388V7.18C64.103,8.493,65.125,9.555,66.551,9.555 M58.182,8.559V5.773h0.785
        c0.832,0,1.395,0.575,1.395,1.393V7.18c0,0.817-0.562,1.379-1.395,1.379H58.182z M57.166,9.476h1.801
        c1.453,0,2.455-1.009,2.455-2.311V7.153c0-1.3-1.002-2.296-2.455-2.296h-1.801V9.476z M54.777,9.476h1.016V4.857h-1.016V9.476z
         M50.782,7.542l0.614-1.497l0.614,1.497H50.782z M48.961,9.476h1.036l0.422-1.036h1.954l0.422,1.036h1.062l-1.979-4.652h-0.937
        L48.961,9.476z M42.163,9.476h1.003V6.54l2.238,2.937h0.864V4.857h-1.003v2.844L43.1,4.857h-0.937V9.476z M39.774,9.476h1.016
        V4.857h-1.016V9.476z"/>
</g>
</svg>
