<?xml version="1.0" encoding="utf-8"?>
<!-- Generator: Adobe Illustrator 15.0.2, SVG Export Plug-In . SVG Version: 6.00 Build 0)  -->
<!DOCTYPE svg PUBLIC "-//W3C//DTD SVG 1.1//EN" "http://www.w3.org/Graphics/SVG/1.1/DTD/svg11.dtd">
<svg version="1.1" id="Layer_1" xmlns="http://www.w3.org/2000/svg" xmlns:xlink="http://www.w3.org/1999/xlink" x="0px" y="0px"
	 width="48px" height="168px" viewBox="0 0 48 168" enable-background="new 0 0 48 168" xml:space="preserve">
<g>
	<polygon points="32.938,162.003 32.938,128.367 13.062,128.367 13.062,162.003 8.475,162.003 8.475,166.59 13.062,166.59 
		32.938,166.59 37.527,166.59 37.527,162.003 	"/>
	<rect x="5.602" y="108.492" fill="#C20016" width="35.295" height="4.586"/>
	<rect x="13.062" y="40.456" fill="#EBC4B8" width="19.875" height="19.875"/>
	<rect x="12.298" y="2.232" width="21.405" height="38.224"/>
	<rect x="13.062" y="60.332" width="19.875" height="4.586"/>
	<rect x="32.939" y="113.079" fill="#EBC4B8" width="9.174" height="4.587"/>
	<rect x="3.889" y="108.492" width="9.175" height="4.586"/>
	<rect x="3.889" y="113.079" fill="#EBC4B8" width="9.175" height="4.587"/>
	<rect x="13.062" y="103.141" fill="#FFFFFF" width="19.875" height="5.353"/>
	<rect x="32.939" y="108.492" width="9.174" height="4.586"/>
	<polygon fill="#C20016" points="3.889,64.917 3.889,103.141 3.889,108.492 13.062,108.492 13.062,103.141 32.939,103.141 
		32.939,108.492 42.113,108.492 42.113,103.141 42.113,64.917 	"/>
	<rect x="36.757" y="40.473" width="1.49" height="72.986"/>
	<rect x="36.74" y="21.361" fill="#C7D0D8" width="1.526" height="19.111"/>
	<rect x="22.427" y="128.367" fill="#22323B" width="1.147" height="33.636"/>
	<rect x="34.447" y="64.917" width="6.112" height="50.455"/>
	<rect x="13.062" y="108.492" fill="#C20016" width="19.875" height="19.875"/>
</g>
</svg>
