<?xml version="1.0" encoding="utf-8"?>
<!-- Generator: Adobe Illustrator 15.0.2, SVG Export Plug-In . SVG Version: 6.00 Build 0)  -->
<!DOCTYPE svg PUBLIC "-//W3C//DTD SVG 1.1//EN" "http://www.w3.org/Graphics/SVG/1.1/DTD/svg11.dtd">
<svg version="1.1" id="Layer_1" xmlns="http://www.w3.org/2000/svg" xmlns:xlink="http://www.w3.org/1999/xlink" x="0px" y="0px"
     width="255.118px" height="85.04px" viewBox="0 0 255.118 85.04" enable-background="new 0 0 255.118 85.04" xml:space="preserve">
    <g>
        <path fill="#C10016" d="M242.596,11.323c0,0,0-1.208-1.209-1.208h-61.402c0,0-1.204,0-1.204,1.208v61.408c0,0,0,1.208,1.204,1.208
            h61.402c0,0,1.209,0,1.209-1.208V11.323z"/>
        <path fill="#FFFFFF" d="M196.517,61.381c-2.693,0-4.896-2.204-4.896-4.897V28.146c0-2.693,2.203-4.892,4.896-4.892h28.343
            c2.694,0,4.893,2.199,4.893,4.892v28.338c0,2.693-2.198,4.897-4.893,4.897H196.517z"/>
        <path fill="#C32417" d="M223.708,27.484h-4.307c-0.947,0-1.718,0.776-1.718,1.723v4.107c0,0.947,0.771,1.713,1.718,1.713h4.307
            c0.947,0,1.713-0.767,1.713-1.713v-4.107C225.421,28.26,224.655,27.484,223.708,27.484"/>
        <path fill="#C32417" d="M225.44,39.8c0,0,0-0.423-0.419-0.423h-2.508c0,0-0.429,0-0.3,0.404c0.19,0.633,0.361,1.728,0.361,2.87
            c0,6.338-5.306,11.483-11.854,11.483c-6.544,0-11.854-5.145-11.854-11.483c0-1.142,0.181-2.237,0.371-2.87
            c0,0,0.124-0.404-0.305-0.404h-1.865c0,0-1.209,0-1.209,1.204v14.9c0,0.837,0.681,1.519,1.514,1.519h26.554
            c0.833,0,1.514-0.682,1.514-1.519V39.8z"/>
        <path fill="#C32417" d="M210.727,34.812c-4.235,0-7.662,3.317-7.662,7.424c0,4.092,3.427,7.415,7.662,7.415
            c4.226,0,7.656-3.322,7.656-7.415C218.383,38.129,214.952,34.812,210.727,34.812"/>
    </g>
</svg>