<?xml version="1.0" encoding="utf-8"?>
<!-- Generator: Adobe Illustrator 15.0.2, SVG Export Plug-In . SVG Version: 6.00 Build 0)  -->
<!DOCTYPE svg PUBLIC "-//W3C//DTD SVG 1.1//EN" "http://www.w3.org/Graphics/SVG/1.1/DTD/svg11.dtd">
<svg version="1.1" id="Layer_1" xmlns="http://www.w3.org/2000/svg" xmlns:xlink="http://www.w3.org/1999/xlink" x="0px" y="0px"
     width="283.464px" height="85.04px" viewBox="0 0 283.464 85.04" enable-background="new 0 0 283.464 85.04" xml:space="preserve">
<g>
    <path fill="#20201E" d="M271.155,32.528c0-7.964-6.082-14.42-13.584-14.42h-94.772h-41.349H26.677
        c-7.503,0-13.584,6.456-13.584,14.42c0,7.965,6.081,14.42,13.584,14.42h94.772h41.349h94.772
        C265.073,46.948,271.155,40.493,271.155,32.528"/>
    <path fill="#FFFFFF" d="M249.19,40.744h9.432c0.912,0,1.656-0.721,1.656-1.633s-0.744-1.655-1.656-1.655h-7.607v-3.528h6.408
        c0.912,0,1.656-0.72,1.656-1.632s-0.744-1.656-1.656-1.656h-6.408v-3.408h7.488c0.912,0,1.656-0.72,1.656-1.632
        s-0.744-1.656-1.656-1.656h-9.312c-1.031,0-1.848,0.816-1.848,1.849v13.104C247.342,39.927,248.159,40.744,249.19,40.744
         M236.645,41.031c2.52,0,4.512-0.84,5.881-1.68c0.887-0.528,1.295-1.271,1.295-2.352v-4.08c0-1.032-0.815-1.849-1.848-1.849h-4.225
        c-0.887,0-1.607,0.721-1.607,1.608s0.721,1.584,1.607,1.584h2.496v2.4c-0.936,0.672-2.135,1.008-3.479,1.008
        c-2.976,0-5.088-2.256-5.088-5.328v-0.048c0-2.856,2.136-5.232,4.823-5.232c1.584,0,2.664,0.433,3.673,1.152
        c0.264,0.191,0.6,0.384,1.128,0.384c1.008,0,1.824-0.815,1.824-1.824c0-0.72-0.408-1.224-0.769-1.487
        c-1.512-1.057-3.192-1.633-5.735-1.633c-5.088,0-8.809,3.912-8.809,8.688v0.048C227.813,37.359,231.413,41.031,236.645,41.031
         M209.77,39.063c0,1.008,0.816,1.824,1.824,1.824s1.824-0.816,1.824-1.824v-9l7.392,9.696c0.504,0.647,1.032,1.08,1.92,1.08h0.12
        c1.032,0,1.848-0.816,1.848-1.849V25.624c0-1.009-0.815-1.824-1.824-1.824c-1.008,0-1.823,0.815-1.823,1.824v8.664l-7.128-9.36
        c-0.504-0.648-1.032-1.08-1.92-1.08h-0.385c-1.031,0-1.848,0.816-1.848,1.848V39.063z M195.636,40.744h9.433
        c0.911,0,1.655-0.721,1.655-1.633s-0.744-1.655-1.655-1.655h-7.609v-3.528h6.408c0.912,0,1.656-0.72,1.656-1.632
        s-0.744-1.656-1.656-1.656h-6.408v-3.408h7.488c0.912,0,1.656-0.72,1.656-1.632s-0.744-1.656-1.656-1.656h-9.312
        c-1.032,0-1.849,0.816-1.849,1.849v13.104C193.788,39.927,194.604,40.744,195.636,40.744 M179.336,38.895
        c0,1.032,0.816,1.849,1.848,1.849h8.688c0.937,0,1.681-0.744,1.681-1.681c0-0.936-0.744-1.68-1.681-1.68h-6.84V25.647
        c0-1.032-0.815-1.848-1.848-1.848c-1.031,0-1.848,0.815-1.848,1.848V38.895z M164.883,38.895c0,1.032,0.816,1.849,1.848,1.849
        h8.688c0.937,0,1.681-0.744,1.681-1.681c0-0.936-0.744-1.68-1.681-1.68h-6.84V25.647c0-1.032-0.815-1.848-1.848-1.848
        c-1.031,0-1.848,0.815-1.848,1.848V38.895z M151.825,33.711l2.328-5.544l2.328,5.544H151.825z M145.874,39.16
        c0,0.96,0.744,1.728,1.703,1.728c0.769,0,1.393-0.432,1.705-1.152l1.176-2.76h7.392l1.128,2.64
        c0.336,0.769,0.912,1.272,1.776,1.272c0.983,0,1.752-0.792,1.752-1.776c0-0.239-0.072-0.479-0.192-0.743l-5.855-13.225
        c-0.408-0.912-1.129-1.464-2.137-1.464h-0.216c-1.008,0-1.752,0.552-2.159,1.464l-5.856,13.225
        C145.969,38.631,145.874,38.895,145.874,39.16 M129.311,39.04c0,1.031,0.816,1.848,1.848,1.848s1.848-0.816,1.848-1.848V34h6.816
        v5.04c0,1.031,0.816,1.848,1.848,1.848c1.032,0,1.848-0.816,1.848-1.848V25.647c0-1.032-0.816-1.848-1.848-1.848
        c-1.032,0-1.848,0.815-1.848,1.848v4.944h-6.816v-4.944c0-1.032-0.816-1.848-1.848-1.848s-1.848,0.815-1.848,1.848V39.04z
         M119.67,41.031c2.688,0,4.464-0.792,5.976-2.111c0.336-0.288,0.624-0.744,0.624-1.32c0-0.936-0.792-1.704-1.728-1.704
        c-0.432,0-0.816,0.168-1.104,0.408c-1.056,0.84-2.088,1.32-3.648,1.32c-2.88,0-4.872-2.4-4.872-5.28v-0.048
        c0-2.88,2.04-5.232,4.872-5.232c1.32,0,2.4,0.433,3.432,1.2c0.264,0.168,0.6,0.36,1.104,0.36c1.008,0,1.824-0.792,1.824-1.801
        c0-0.647-0.336-1.176-0.72-1.464c-1.392-1.031-3.096-1.704-5.616-1.704c-5.16,0-8.76,3.912-8.76,8.688v0.048
        C111.054,37.215,114.726,41.031,119.67,41.031 M95.695,40.983c3.624,0,6.168-1.872,6.168-5.208v-0.048
        c0-2.928-1.92-4.151-5.328-5.04c-2.904-0.744-3.624-1.104-3.624-2.208v-0.048c0-0.816,0.744-1.464,2.16-1.464
        c1.152,0,2.304,0.408,3.528,1.128c0.288,0.168,0.576,0.264,0.936,0.264c0.96,0,1.728-0.744,1.728-1.704
        c0-0.72-0.408-1.224-0.816-1.464c-1.512-0.96-3.288-1.487-5.328-1.487c-3.432,0-5.88,2.016-5.88,5.063v0.048
        c0,3.336,2.184,4.272,5.568,5.137c2.808,0.72,3.384,1.199,3.384,2.136v0.048c0,0.984-0.912,1.584-2.424,1.584
        c-1.632,0-3.024-0.576-4.296-1.512c-0.24-0.168-0.576-0.336-1.056-0.336c-0.96,0-1.728,0.743-1.728,1.704
        c0,0.575,0.288,1.104,0.696,1.392C91.255,40.311,93.487,40.983,95.695,40.983 M81.386,30.855c0,0.433,0.264,0.816,0.912,0.816
        c0.888,0,1.968-0.433,2.688-1.152c0.888-0.888,1.416-2.184,1.416-3.936v-0.097c0-1.655-0.792-2.688-2.136-2.688
        c-1.2,0-1.992,0.84-1.992,1.968v0.048c0,1.032,0.84,1.752,1.68,1.969c0.048,1.151-0.624,1.991-1.848,2.279
        C81.698,30.16,81.386,30.423,81.386,30.855 M66.837,39.04c0,1.031,0.816,1.848,1.848,1.848c1.032,0,1.848-0.816,1.848-1.848v-4.801
        h6.48c0.936,0,1.68-0.743,1.68-1.68c0-0.936-0.744-1.68-1.68-1.68h-6.48v-3.576h7.56c0.936,0,1.68-0.744,1.68-1.68
        c0-0.937-0.744-1.681-1.68-1.681h-9.408c-1.032,0-1.848,0.816-1.848,1.849V39.04z M59.081,39.04c0,1.031,0.816,1.848,1.848,1.848
        s1.848-0.816,1.848-1.848V25.647c0-1.032-0.816-1.848-1.848-1.848s-1.848,0.815-1.848,1.848V39.04z M40.774,39.04
        c0,1.031,0.816,1.848,1.848,1.848c1.032,0,1.848-0.816,1.848-1.848V34h6.816v5.04c0,1.031,0.816,1.848,1.848,1.848
        c1.032,0,1.848-0.816,1.848-1.848V25.647c0-1.032-0.816-1.848-1.848-1.848c-1.032,0-1.848,0.815-1.848,1.848v4.944H44.47v-4.944
        c0-1.032-0.816-1.848-1.848-1.848c-1.032,0-1.848,0.815-1.848,1.848V39.04z M31.133,41.031c2.688,0,4.464-0.792,5.976-2.111
        c0.336-0.288,0.624-0.744,0.624-1.32c0-0.936-0.792-1.704-1.728-1.704c-0.432,0-0.816,0.168-1.104,0.408
        c-1.056,0.84-2.088,1.32-3.648,1.32c-2.88,0-4.872-2.4-4.872-5.28v-0.048c0-2.88,2.04-5.232,4.872-5.232
        c1.32,0,2.4,0.433,3.432,1.2c0.264,0.168,0.6,0.36,1.104,0.36c1.008,0,1.824-0.792,1.824-1.801c0-0.647-0.336-1.176-0.72-1.464
        c-1.392-1.031-3.096-1.704-5.616-1.704c-5.16,0-8.76,3.912-8.76,8.688v0.048C22.517,37.215,26.189,41.031,31.133,41.031"/>
    <path fill="#FFFFFF" d="M238.25,63.895c-1.472,0-2.352-0.769-2.352-1.681v-0.031c0-1.024,1.023-1.696,2.352-1.696
        s2.352,0.672,2.352,1.696v0.031C240.602,63.143,239.723,63.895,238.25,63.895 M238.25,58.918c-1.152,0-2-0.688-2-1.664v-0.031
        c0-0.849,0.801-1.553,2-1.553c1.2,0,2,0.704,2,1.568v0.032C240.25,58.231,239.403,58.918,238.25,58.918 M238.25,65.542
        c2.448,0,4.271-1.248,4.271-3.248v-0.031c0-1.328-0.799-2.129-2.016-2.688c0.944-0.496,1.633-1.248,1.633-2.496v-0.032
        c0-1.728-1.648-3.023-3.889-3.023s-3.888,1.312-3.888,3.023v0.032c0,1.248,0.688,2,1.632,2.496
        c-1.264,0.528-2.016,1.376-2.016,2.736v0.031C233.979,64.263,235.803,65.542,238.25,65.542 M229.546,65.382h1.952V54.103h-1.376
        l-3.008,0.96l0.416,1.6l2.016-0.56V65.382z M221.147,63.798c-1.744,0-2.864-1.808-2.864-4.016V59.75
        c0-2.224,1.104-3.983,2.832-3.983s2.864,1.808,2.864,4.016v0.032C223.979,62.023,222.891,63.798,221.147,63.798 M221.115,65.575
        c2.944,0,4.896-2.592,4.896-5.792V59.75c0-3.2-1.936-5.76-4.863-5.76c-2.944,0-4.896,2.592-4.896,5.792v0.032
        C216.25,63.015,218.17,65.575,221.115,65.575 M206.36,65.382h8.097v-1.728h-5.328l2.304-1.92c1.984-1.616,2.912-2.576,2.912-4.336
        v-0.032c0-2-1.504-3.344-3.695-3.344c-2,0-3.057,0.848-4.129,2.352l1.393,1.088c0.863-1.12,1.568-1.68,2.592-1.68
        c1.024,0,1.809,0.64,1.809,1.744c0,1.008-0.561,1.728-2.096,3.023l-3.857,3.28V65.382z M191.464,65.382h8.384v-1.76h-6.416v-3.008
        h5.616v-1.76h-5.616v-2.912h6.336v-1.76h-8.304V65.382z M178.662,65.382h1.937v-7.968l6.176,7.968h1.647V54.183h-1.937v7.743
        l-6-7.743h-1.823V65.382z M170.93,65.559c2.928,0,4.815-1.681,4.815-5.024v-6.352h-1.968v6.447c0,2.064-1.072,3.12-2.816,3.12
        c-1.76,0-2.832-1.12-2.832-3.2v-6.367h-1.968v6.447C166.162,63.878,168.018,65.559,170.93,65.559 M159.606,65.542
        c1.121,0,2.064-0.336,2.721-0.992c0.656-0.655,1.04-1.647,1.04-2.976v-7.392h-2.017v7.344c0,1.488-0.72,2.191-1.775,2.191
        c-0.944,0-1.6-0.479-2.256-1.312l-1.297,1.328C156.758,64.743,157.878,65.542,159.606,65.542 M145.559,59.798
        c-1.393,0-2.289-0.832-2.289-2v-0.031c0-1.152,0.832-2.08,2.225-2.08c1.424,0,2.336,0.896,2.336,2.063v0.032
        C147.831,58.871,146.983,59.798,145.559,59.798 M145.143,65.575c3.008,0,4.799-2.496,4.799-6.096v-0.032
        c0-2.208-0.527-3.44-1.359-4.272c-0.784-0.783-1.695-1.184-3.104-1.184c-2.48,0-4.176,1.68-4.176,3.872v0.032
        c0,2.16,1.584,3.552,3.967,3.552c1.201,0,2.064-0.512,2.625-1.184c-0.064,2.063-1.057,3.52-2.705,3.52
        c-0.959,0-1.711-0.336-2.56-1.056l-1.072,1.504C142.502,65.015,143.59,65.575,145.143,65.575 M128.807,65.382h1.984v-4.464
        l4.448-6.735h-2.256l-3.168,4.96l-3.136-4.96h-2.32l4.448,6.783V65.382z M117.274,60.935l1.92-4.48l1.936,4.48H117.274z
         M113.387,65.382h2.016l1.152-2.704h5.296l1.136,2.704h2.08l-4.928-11.279h-1.824L113.387,65.382z M104.458,63.59v-7.615h2.208
        c2.352,0,3.888,1.615,3.888,3.808v0.032c0,2.191-1.536,3.775-3.888,3.775H104.458z M102.491,65.382h4.176
        c3.52,0,5.952-2.447,5.952-5.6V59.75c0-3.151-2.432-5.567-5.952-5.567h-4.176V65.382z M92.782,59.735v-3.76h2.864
        c1.456,0,2.32,0.655,2.32,1.855v0.032c0,1.136-0.896,1.872-2.304,1.872H92.782z M90.813,65.382h1.968v-3.903h2.464l2.752,3.903
        h2.32l-3.024-4.239c1.568-0.448,2.672-1.553,2.672-3.393v-0.032c0-0.976-0.336-1.808-0.928-2.416
        c-0.72-0.703-1.824-1.119-3.232-1.119h-4.992V65.382z M83.081,65.559c2.928,0,4.816-1.681,4.816-5.024v-6.352h-1.968v6.447
        c0,2.064-1.072,3.12-2.816,3.12c-1.76,0-2.832-1.12-2.832-3.2v-6.367h-1.968v6.447C78.312,63.878,80.168,65.559,83.081,65.559
         M70.896,65.382h1.984v-9.376h3.552v-1.823h-9.088v1.823h3.552V65.382z M59.848,60.935l1.92-4.48l1.936,4.48H59.848z
         M55.959,65.382h2.016l1.152-2.704h5.296l1.136,2.704h2.08l-4.928-11.279h-1.824L55.959,65.382z M50.815,65.542
        c2.352,0,4-1.248,4-3.344v-0.032c0-1.855-1.232-2.704-3.6-3.28c-2.144-0.512-2.656-0.896-2.656-1.76v-0.032
        c0-0.735,0.672-1.327,1.824-1.327c1.024,0,2.032,0.399,3.04,1.151l1.056-1.487c-1.136-0.912-2.432-1.408-4.064-1.408
        c-2.224,0-3.824,1.328-3.824,3.248v0.031c0,2.064,1.344,2.769,3.728,3.345c2.08,0.479,2.528,0.912,2.528,1.712v0.032
        c0,0.848-0.768,1.407-1.984,1.407c-1.392,0-2.464-0.527-3.536-1.456l-1.184,1.408C47.488,64.951,49.104,65.542,50.815,65.542"/>
</g>
</svg>
